<?xml version="1.0" encoding="UTF-8"?>
<svg width="70px" height="66px" viewBox="0 0 70 66" version="1.1" xmlns="http://www.w3.org/2000/svg" xmlns:xlink="http://www.w3.org/1999/xlink">
    <!-- Generator: Sketch 53.1 (72631) - https://sketchapp.com -->
    <title>Star Copy</title>
    <desc>Created with Sketch.</desc>
    <g id="logo-2" stroke="none" stroke-width="1" fill="none" fill-rule="evenodd">
        <g id="Artboard" transform="translate(-135.000000, -21.000000)" stroke="#000000" stroke-width="10">
            <g id="Group-2" transform="translate(0.000000, 6.000000)">
                <g id="Group-Copy" transform="translate(76.000000, 0.000000)">
                    <path d="M92.4647641,68.4392899 L79.5956101,75.0488658 C77.9449181,75.8966585 75.9194962,75.24578 75.0717036,73.595088 C74.7370612,72.9435237 74.6245013,72.2004535 74.7511614,71.4790113 L77.1703474,57.6995874 C77.3647847,56.5920931 76.9923471,55.46075 76.1780548,54.6853291 L65.9879921,44.9817025 C64.6441474,43.7020081 64.5921434,41.5752095 65.8718378,40.2313648 C66.3932884,39.6837743 67.0842024,39.3280817 67.832849,39.2218075 L82.054902,37.2029147 C83.1426944,37.048497 84.0862743,36.3719998 84.581693,35.391338 L91.0008026,22.6849652 C91.837554,21.028649 93.8585846,20.3642604 95.5149008,21.2010118 C96.1553042,21.5245361 96.6753299,22.0445617 96.9988542,22.6849652 L103.417964,35.391338 C103.913383,36.3719998 104.856962,37.048497 105.944755,37.2029147 L120.166808,39.2218075 C122.004065,39.4826155 123.28203,41.1834338 123.021222,43.0206913 C122.914948,43.769338 122.559255,44.460252 122.011665,44.9817025 L111.821602,54.6853291 C111.00731,55.46075 110.634872,56.5920931 110.829309,57.6995874 L113.248495,71.4790113 C113.56938,73.3067338 112.347846,75.0485237 110.520123,75.369408 C109.798681,75.4960681 109.055611,75.3835082 108.404047,75.0488658 L95.5348927,68.4392899 C94.5713438,67.9444128 93.428313,67.9444128 92.4647641,68.4392899 Z" id="Star-Copy"></path>
                </g>
            </g>
        </g>
    </g>
</svg>